<svg width="80" height="80" viewBox="0 0 80 80" fill="none" xmlns="http://www.w3.org/2000/svg">
  <defs>
    <linearGradient id="logoGradient" x1="0%" y1="0%" x2="100%" y2="100%">
      <stop offset="0%" style="stop-color:#4F46E5;stop-opacity:1" />
      <stop offset="100%" style="stop-color:#06B6D4;stop-opacity:1" />
    </linearGradient>
  </defs>
  
  <!-- Outer circle -->
  <circle cx="40" cy="40" r="38" fill="url(#logoGradient)" stroke="white" stroke-width="2"/>
  
  <!-- Inner design elements -->
  <g transform="translate(40, 40)">
    <!-- Central circle -->
    <circle cx="0" cy="0" r="8" fill="white" opacity="0.9"/>
    
    <!-- Rotating elements -->
    <g>
      <!-- First arc -->
      <path d="M -20 0 A 20 20 0 0 1 0 -20" stroke="white" stroke-width="3" fill="none" opacity="0.8"/>
      <!-- Second arc -->
      <path d="M 0 20 A 20 20 0 0 1 20 0" stroke="white" stroke-width="3" fill="none" opacity="0.8"/>
      <!-- Third arc -->
      <path d="M 20 0 A 20 20 0 0 1 0 20" stroke="white" stroke-width="2" fill="none" opacity="0.6"/>
      <!-- Fourth arc -->
      <path d="M 0 -20 A 20 20 0 0 1 -20 0" stroke="white" stroke-width="2" fill="none" opacity="0.6"/>
    </g>
    
    <!-- Small dots for decoration -->
    <circle cx="14" cy="-14" r="2" fill="white" opacity="0.7"/>
    <circle cx="-14" cy="14" r="2" fill="white" opacity="0.7"/>
    <circle cx="14" cy="14" r="1.5" fill="white" opacity="0.5"/>
    <circle cx="-14" cy="-14" r="1.5" fill="white" opacity="0.5"/>
  </g>
</svg>